#!OML:ASF F:\VICON\USERDATA\INSTALL\rory3\rory3.ASF
:FULLY-SPECIFIED
:DEGREES
329
root 0.505099 21.3951 -12.2868 -168.202 -25.5304 -184.673
lowerback 5.89535 -8.46461 2.37047
upperback -6.24228 -11.2857 0.937536
thorax -10.2015 -5.67635 1.38894
lowerneck -19.7438 -2.50236 0.553438
upperneck 36.919 0.15481 -2.5496
head 16.6481 0.845619 -0.875201
rclavicle -1.20513e-014 -1.19271e-015
rhumerus -15.1561 -36.793 18.7795
rradius 20.3077
rwrist -2.13976
rhand 16.1146 -8.10259
rfingers 7.12502
rthumb 40.8998 -33.0507
lclavicle -1.20513e-014 -1.19271e-015
lhumerus 48.6785 -10.2008 9.41812
lradius 23.7595
lwrist -43.7053
lhand 19.1622 24.8048
lfingers 7.12502
lthumb 43.7539 48.7789
rfemur -67.3959 14.1811 -87.7936
rtibia 49.5037
rfoot -81.3256 20.6401
rtoes 63.1928
lfemur 32.7158 -9.6136 2.32078
ltibia -8.90555e-014
lfoot 47.3933 44.9298
ltoes 14.4608
330
root 0.566837 21.3757 -12.531 -167.53 -26.5964 -187.216
lowerback 5.95416 -8.81304 0.100462
upperback -6.90685 -12.1525 0.130343
thorax -10.6917 -5.98345 1.93132
lowerneck -17.3124 0.894813 -1.25185
upperneck 36.4856 -1.54907 -0.216268
head 15.8402 -2.02657 -0.487565
rclavicle -2.01953e-014 8.74653e-015
rhumerus -15.5989 -37.1528 21.3091
rradius 20.1073
rwrist 0.561916
rhand 12.8098 -8.32233
rfingers 7.12502
rthumb 37.7862 -34.1794
lclavicle -2.01953e-014 8.74653e-015
lhumerus 48.1473 -12.9988 4.58448
lradius 24.4796
lwrist -40.9983
lhand 19.228 27.4126
lfingers 7.12502
lthumb 43.8153 51.364
rfemur -168.338 -19.8778 84.7885
rtibia 49.486
rfoot 61.1897 3.56713
rtoes 63.4178
lfemur 34.6422 -11.7471 2.0635
ltibia 1.59028e-014
lfoot 47.4222 48.5708
ltoes 17.4562
331
root 0.616817 21.3675 -12.7737 -166.811 -27.8402 -189.614
lowerback 4.66211 -9.46297 -2.5845
upperback -5.73283 -13.1795 -0.389379
thorax -8.14829 -6.40719 2.47627
lowerneck -18.5073 -2.37162 -0.0738943
upperneck 35.4357 -0.116241 -1.48218
head 15.5996 0.723713 -0.362156
rclavicle -2.87617e-014 8.74653e-015
rhumerus -16.164 -34.9539 22.646
rradius 20.1338
rwrist -1.90634
rhand 8.12805 -9.12565
rfingers 7.12502
rthumb 33.3488 -36.0516
lclavicle -2.87617e-014 8.74653e-015
lhumerus 47.7646 -11.1472 1.61618
lradius 24.1246
lwrist -40.2646
lhand 18.4676 28.3286
lfingers 7.12502
lthumb 43.1049 52.5374
rfemur -167.62 -29.9053 74.5899
rtibia 49.4761
rfoot 51.4226 -6.89665
rtoes 63.5479
lfemur 36.2245 -13.9973 1.93429
ltibia -5.08889e-014
lfoot 43.5941 53.1172
ltoes 22.0726
332
root 0.657676 21.3615 -12.9858 -165.998 -28.3336 -191.047
lowerback 4.91285 -9.58024 -3.3843
upperback -6.33357 -13.5991 -1.09022
thorax -8.93809 -6.58441 2.33874
lowerneck -17.5301 0.891806 -0.86151
upperneck 35.1223 -1.41814 0.216999
head 15.2262 -1.71852 -0.292424
rclavicle -7.63733e-014 -1.47101e-014
rhumerus -16.7441 -37.7021 24.9763
rradius 19.6899
rwrist 4.05934
rhand 4.71214 -8.81647
rfingers 7.12502
rthumb 30.0954 -36.3864
lclavicle -7.63733e-014 -1.47101e-014
lhumerus 47.6418 -11.7567 -0.7795
lradius 23.9229
lwrist -39.6484
lhand 17.254 28.8824
lfingers 7.12502
lthumb 41.9689 53.4829
rfemur -163.807 -39.9294 63.2435
rtibia 49.5271
rfoot 39.913 -12.6928
rtoes 63.6134
lfemur 37.4844 -15.2167 2.50449
ltibia -4.77083e-014
lfoot 36.6655 58.4866
ltoes 29.512
333
root 0.714097 21.3679 -13.2137 -166.298 -29.3841 -191.425
lowerback 4.64224 -10.0684 -4.42306
upperback -5.45006 -14.1905 -1.01568
thorax -7.52333 -6.85595 2.79886
lowerneck -18.4427 -1.82878 0.333185
upperneck 34.3367 0.135379 -1.10315
head 15.0565 0.85316 -0.25009
rclavicle -1.14118e-013 -3.91606e-014
rhumerus -17.6187 -43.1504 27.3152
rradius 19.3928
rwrist 10.8882
rhand 1.34664 -8.72042
rfingers 7.12502
rthumb 26.8796 -36.8294
lclavicle -1.14118e-013 -3.91606e-014
lhumerus 46.6417 -9.77097 -1.95709
lradius 23.906
lwrist -39.4863
lhand 15.96 29.73
lfingers 7.12502
lthumb 40.7545 54.7239
rfemur -157.441 -49.4222 51.6362
rtibia 50.0277
rfoot 28.1759 -15.0372
rtoes 63.7399
lfemur 33.0171 -15.9216 4.93116
ltibia 10.3071
lfoot 28.8405 56.3214
ltoes 31.9342
334
root 0.737771 21.3704 -13.4042 -165.875 -29.5807 -191.191
lowerback 4.42136 -10.1678 -3.96753
upperback -6.2476 -14.4097 -1.08654
thorax -8.3872 -6.97744 2.59
lowerneck -16.6281 -1.71539 0.500129
upperneck 33.9412 0.340246 -0.996935
head 14.4584 1.03403 -0.18932
rclavicle -1.00402e-014 -1.13307e-014
rhumerus -17.0454 -44.4247 28.2556
rradius 19.1713
rwrist 16.056
rhand -1.41365 -7.9962
rfingers 7.12502
rthumb 24.2357 -36.4846
lclavicle -1.00402e-014 -1.13307e-014
lhumerus 46.0305 -9.99091 -2.79457
lradius 23.5934
lwrist -39.5035
lhand 14.3528 30.325
lfingers 7.12502
lthumb 39.2421 55.7752
rfemur -154.594 -52.5485 46.6355
rtibia 50.5851
rfoot 21.8185 -14.1395
rtoes 63.9673
lfemur 30.9883 -15.8782 7.04433
ltibia 14.9886
lfoot 34.3916 51.9521
ltoes 26.4968
335
root 1.00512 21.0763 -13.5349 -165.876 -29.8687 -190.578
lowerback 4.4101 -10.2347 -3.60941
upperback -6.69327 -14.521 -0.924004
thorax -8.91051 -7.03457 2.64801
lowerneck -16.23 -1.71776 0.292573
upperneck 33.9251 0.339573 -0.69574
head 14.3613 1.06826 -0.0265277
rclavicle 9.88053e-014 5.96354e-015
rhumerus -16.815 -47.2464 29.4523
rradius 18.9979
rwrist 22.0941
rhand -3.55629 -6.82857
rfingers 7.12502
rthumb 22.18 -35.5761
lclavicle 9.88053e-014 5.96354e-015
lhumerus 45.2045 -9.41672 -2.88666
lradius 23.5339
lwrist -40.0028
lhand 12.0069 30.2811
lfingers 7.12502
lthumb 37.0273 56.3386
rfemur -240.696 -179.669 84.3966
rtibia 51.3469
rfoot -79.5306 -36.058
rtoes 47.0415
lfemur 29.3874 -16.4696 10.813
ltibia 18.4382
lfoot 38.8443 47.2784
ltoes 22.0608
336
root 1.06453 21.0409 -13.7122 -165.736 -30.0195 -190.559
lowerback 3.51007 -10.342 -3.96847
upperback -6.53933 -14.6454 -1.00628
thorax -8.15177 -7.12513 2.53768
lowerneck -15.6094 -1.52194 0.592194
upperneck 33.6506 0.456014 -0.422097
head 14.0966 1.20291 0.0487369
rclavicle 3.31722e-014 4.37326e-015
rhumerus -18.1685 -54.8469 31.7361
rradius 18.919
rwrist 32.4215
rhand -5.16678 -5.10486
rfingers 7.12502
rthumb 20.6332 -34.0282
lclavicle 3.31722e-014 4.37326e-015
lhumerus 44.6416 -10.3455 -6.17887
lradius 24.1886
lwrist -37.2283
lhand 9.69418 30.4885
lfingers 7.12502
lthumb 34.8362 57.0826
rfemur -241.39 -181.912 83.4771
rtibia 51.9473
rfoot -82.1411 -35.1337
rtoes 45.4602
lfemur 29.1607 -16.5791 12.438
ltibia 19.5894
lfoot 43.6688 43.2158
ltoes 16.732
337
root 1.10251 21.0265 -13.9077 -164.778 -29.9189 -191.554
lowerback 3.52053 -10.3128 -4.74102
upperback -7.60734 -14.9391 -1.41082
thorax -9.26235 -7.23251 2.68599
lowerneck -14.0562 -1.52953 0.9079
upperneck 34.2373 0.674106 -0.277278
head 14.0121 1.49411 0.1153
rclavicle 8.2067e-014 8.34896e-015
rhumerus -16.9449 -54.6307 31.3525
rradius 18.8099
rwrist 36.2046
rhand -7.17397 -4.81694
rfingers 7.12502
rthumb 18.7035 -33.9378
lclavicle 8.2067e-014 8.34896e-015
lhumerus 44.294 -11.2138 -6.31088
lradius 24.0685
lwrist -38.2931
lhand 8.63527 31.151
lfingers 7.12502
lthumb 33.8308 57.9722
rfemur -241.469 -181.228 83.8716
rtibia 52.1399
rfoot -79.0954 -34.9075
rtoes 48.2648
lfemur 29.068 -16.5473 12.5891
ltibia 19.7558
lfoot 48.3057 40.1955
ltoes 13.2308
338
root 0.926516 21.3072 -14.2286 -163.321 -29.3106 -193.349
lowerback 2.63898 -10.3179 -6.80034
upperback -7.48464 -15.1011 -1.82591
thorax -8.23188 -7.27954 3.05813
lowerneck -16.0436 -1.24783 1.51321
upperneck 35.2264 0.841834 -0.179449
head 14.9236 1.6509 0.100035
rclavicle 5.34513e-014 -2.98177e-016
rhumerus -20.2537 -63.7715 34.8301
rradius 18.8845
rwrist 46.9181
rhand -8.43075 -3.79166
rfingers 7.12502
rthumb 17.4943 -33.0245
lclavicle 5.34513e-014 -2.98177e-016
lhumerus 43.7928 -9.66122 -6.25455
lradius 23.58
lwrist -39.921
lhand 7.34838 30.7407
lfingers 7.12502
lthumb 32.6072 57.8229
rfemur -155.673 -51.8547 47.8704
rtibia 51.9206
rfoot 24.9155 -10.2378
rtoes 64.1157
lfemur 29.9846 -15.4899 10.3079
ltibia 18.2099
lfoot 50.1698 39.8406
ltoes 12.6361
339
root 0.977921 21.2773 -14.4316 -162.306 -28.3417 -194.484
lowerback 1.81479 -10.0103 -8.32175
upperback -8.18623 -14.9923 -2.32742
thorax -8.35276 -7.20581 3.20977
lowerneck -14.5739 -1.40647 1.99484
upperneck 35.6562 0.801977 -0.151068
head 14.7848 1.82868 0.0438991
rclavicle -4.59317e-014 -7.66315e-014
rhumerus -21.8703 -66.2782 36.5944
rradius 18.8435
rwrist 52.6222
rhand -9.51934 -3.19827
rfingers 7.12502
rthumb 16.4465 -32.5211
lclavicle -4.59317e-014 -7.66315e-014
lhumerus 43.867 -12.6489 -9.87854
lradius 23.6894
lwrist -37.8532
lhand 5.53655 30.1799
lfingers 7.12502
lthumb 30.8816 57.6038
rfemur -158.342 -47.5924 53.7111
rtibia 51.061
rfoot 32.5258 -10.0827
rtoes 64.1546
lfemur 30.8434 -15.3452 9.00295
ltibia 16.7647
lfoot 49.1563 41.6727
ltoes 15.3917
